<?xml version="1.0" encoding="UTF-8"?>
<svg width="498px" height="237px" viewBox="0 0 498 237" version="1.1" xmlns="http://www.w3.org/2000/svg" xmlns:xlink="http://www.w3.org/1999/xlink">
    <!-- Generator: Sketch 51.3 (57544) - http://www.bohemiancoding.com/sketch -->
    <title>HOME_logo</title>
    <desc>Created with Sketch.</desc>
    <defs></defs>
    <g id="HOME_logo" stroke="none" stroke-width="1" fill="none" fill-rule="evenodd">
        <g id="HOME_logo-Copy">
            <g id="Group" transform="translate(150.000000, 152.000000)">
                <path d="M30.064,62.6898 C30.044,62.5728 30.029,62.4528 30.02,62.3278 C30.007,62.1358 29.283,43.7928 29.231,42.2388 C29.183,40.7618 29.939,39.8768 31.31,39.8118 C31.511,39.8028 31.679,39.8028 31.795,39.8048 L31.795,38.9578 L23.891,38.9478 L16.314,58.8028 L8.859,38.9478 L0.845,38.9578 L0.845,39.8118 L0.976,39.8118 C1.846,39.8118 2.969,40.1838 3.484,40.7198 C3.954,41.2098 3.852,41.9468 3.824,42.7108 L3.362,62.7408 C3.27,64.8338 1.609,65.3658 0.609,65.3658 L0.481,65.3658 L0.481,66.2408 L8.02,66.2408 L8.02,66.1718 L8.02,65.3658 L7.856,65.3658 C7.075,65.3658 4.958,64.8938 5.049,62.5938 L5.467,44.3618 L13.963,66.2598 L15.198,66.2528 L24.288,42.5938 L24.601,63.4368 C24.605,63.9668 24.437,64.4048 24.099,64.7458 C23.645,65.2018 22.975,65.3658 22.541,65.3658 L22.399,65.3658 L22.399,66.1718 L22.408,66.1718 L22.408,66.2408 L33.154,66.2408 L33.154,65.3658 L33.023,65.3658 C31.929,65.3658 30.397,64.4848 30.064,62.6898" id="Fill-1" fill="#FFFFFF"></path>
                <path d="M44.9307,55.0492 C46.9627,49.6112 49.3117,43.6532 49.4047,43.4172 L53.2307,55.0312 L44.9307,55.0492 Z M65.7677,65.3652 L65.4727,65.3652 C63.7527,65.3652 62.1937,64.4422 61.4717,63.0332 C61.4247,62.9402 61.3817,62.8422 61.3427,62.7432 L52.6217,38.9572 L45.7337,38.9572 L45.7337,39.7622 L45.7337,39.8122 L45.8567,39.8122 C46.6877,39.8122 47.7217,40.0082 48.0917,40.5722 C48.1167,40.6112 48.1377,40.6532 48.1577,40.6952 C48.3217,41.0862 48.2407,41.5482 48.0387,42.0172 L40.4267,62.4082 C39.5147,64.3342 38.1777,65.3652 35.6757,65.3652 L35.4127,65.3652 L35.4127,66.2382 L45.1407,66.2382 L45.1407,65.3652 L44.6427,65.3652 C44.4307,65.3652 42.5667,65.3382 41.9017,64.3902 C41.8707,64.3462 41.8477,64.3012 41.8277,64.2552 C41.7267,63.9302 41.8817,63.5802 42.0477,63.1272 C42.1967,62.7132 43.1967,60.0912 44.4877,56.6302 L53.5137,56.6122 L55.7807,63.1572 C56.0187,63.7652 55.9917,64.3442 55.6957,64.7782 C55.4447,65.1492 54.7317,65.3622 54.2577,65.3652 L54.0537,65.3652 L54.0537,66.1722 L54.0837,66.1722 L54.0837,66.2382 L65.8057,66.2382 L65.8057,65.4322 L65.7677,65.4322 L65.7677,65.3652 Z" id="Fill-3" fill="#FFFFFF"></path>
                <path d="M96.8853,65.3597 C95.6193,65.3597 94.0633,64.5877 93.1003,63.5307 C92.9823,63.3977 92.8723,63.2597 92.7753,63.1197 L84.3753,51.7047 L84.5113,51.6197 C88.3623,49.2937 90.6413,46.9777 90.6993,44.7397 C90.7303,43.4807 90.2163,42.2707 89.2123,41.2387 C89.1983,41.2257 89.1833,41.2137 89.1703,41.2007 C89.1663,41.1957 89.1633,41.1917 89.1593,41.1877 C87.5443,39.5337 84.3443,38.9577 80.4693,38.9577 L69.3033,38.9577 L69.3033,39.7597 L69.3433,39.7597 L69.3433,39.8107 L69.5353,39.8107 C70.3503,39.8317 71.0793,40.1967 71.5643,40.7537 C71.9253,41.1867 72.1413,41.7287 72.1413,42.3117 L72.1413,62.3807 C72.1213,64.2007 70.8043,65.3427 68.6993,65.3657 L68.6203,65.3657 L68.6203,66.1717 L68.6203,66.2407 L80.7883,66.2407 L80.7883,65.4317 L80.7883,65.3657 L80.4743,65.3657 C79.5913,65.3657 78.8843,65.1057 78.3723,64.5887 C78.3033,64.5197 78.2393,64.4447 78.1783,64.3657 C77.7743,63.8077 77.5643,63.0507 77.5733,62.1437 L77.5733,40.0747 L78.1713,40.0747 C82.2453,40.0747 83.6773,40.3897 84.6573,41.4127 C84.7213,41.4817 84.7833,41.5537 84.8443,41.6297 C85.5853,42.5557 86.0223,43.7167 85.9903,44.6617 C85.8153,49.5057 80.0203,52.9507 78.9933,53.5187 L88.5713,66.1767 L88.5733,66.1767 L88.6243,66.2457 L97.2233,66.2407 L97.2233,65.3607 L97.1643,65.3627 L96.8853,65.3597 Z" id="Fill-5" fill="#FFFFFF"></path>
                <path d="M120.0283,38.9574 L115.1983,38.9574 L111.9393,38.9574 L104.5963,38.9574 L96.5083,38.9574 L95.6723,44.6074 L95.7383,44.6074 L96.5463,44.6074 L96.5543,44.5624 C97.0053,41.5004 98.7613,40.4934 101.6783,40.4934 L104.5563,40.4934 L104.5573,40.4824 L105.5333,40.4824 L105.5333,62.2114 C105.5333,64.1864 104.1353,65.3654 101.7893,65.3654 L101.6773,65.3654 L101.6773,66.1724 L101.6773,66.2374 L101.7383,66.2404 L114.8403,66.2404 L114.8403,65.4324 L114.8403,65.3654 L114.6583,65.3654 C113.3803,65.3654 112.3843,65.0134 111.7423,64.3724 C111.2483,63.8464 110.9823,63.1364 110.9823,62.2754 L110.9823,40.4824 L112.1143,40.4824 L112.1153,40.4934 L114.9933,40.4934 C116.4193,40.4934 117.5653,40.7364 118.4203,41.3424 C119.2693,41.9774 119.8163,42.9894 120.0423,44.5104 L120.0523,44.6074 L120.1243,44.6074 L120.9293,44.6074 L120.0953,38.9574 L120.0283,38.9574 Z" id="Fill-7" fill="#FFFFFF"></path>
                <path d="M146.042,60.5736 L146.036,60.6176 C145.582,63.6796 143.827,64.6856 140.916,64.6856 L138.038,64.6856 L133.564,64.6856 L133.564,52.5676 L139.125,52.5656 C139.563,52.5736 139.96,52.6836 140.292,52.8896 C140.836,53.2696 141.178,53.9306 141.175,54.8626 L141.175,54.9496 L141.175,55.0076 L142.066,55.0076 L142.066,48.9426 L141.98,48.9426 L141.175,48.9426 L141.16,49.0566 C141.17,50.0876 140.314,50.9646 139.132,50.9836 L133.564,50.9836 L133.564,40.5016 L139.765,40.5016 C140.867,40.5316 141.794,40.7206 142.533,41.1336 C143.565,41.7456 144.221,42.8096 144.471,44.5106 L144.477,44.6076 L145.376,44.6076 L144.542,38.9576 L144.457,38.9576 L140.124,38.9576 L136.371,38.9576 L124.852,38.9576 L124.852,39.7606 L124.852,39.8106 L124.978,39.8106 C125.719,39.8126 126.384,39.9896 126.913,40.3116 C127.075,40.4176 127.224,40.5366 127.355,40.6706 C127.851,41.1766 128.108,41.8656 128.096,42.6646 L128.096,62.2086 C128.096,64.0956 126.061,65.3656 124.16,65.3656 L123.979,65.3656 L123.979,66.1726 L123.979,66.2406 L138.019,66.2406 L146.113,66.2406 L146.957,60.5736 L146.848,60.5736 L146.042,60.5736 Z" id="Fill-9" fill="#FFFFFF"></path>
                <path d="M171.0937,60.6175 C170.6417,63.6805 168.8867,64.6855 165.9717,64.6855 L163.6937,64.6855 L163.0957,64.6855 L159.8027,64.6855 L159.8027,42.6235 C159.8027,40.3825 161.0677,39.8115 163.0777,39.8115 L163.3107,39.8115 L163.3107,38.9575 L163.2067,38.9575 L150.4547,38.9575 L150.4547,39.7575 L150.4547,39.8075 L150.5797,39.8075 C151.0567,39.8105 152.0657,39.7695 152.9277,40.2035 C153.6887,40.6235 154.3107,41.4385 154.3107,43.0225 L154.3227,61.8255 C154.3227,64.1395 153.0337,65.3655 150.5947,65.3655 L150.4547,65.3655 L150.4547,66.1725 L150.4547,66.2405 L163.0947,66.2405 L163.4817,66.2405 L171.1877,66.2405 L172.0157,60.5735 L171.1007,60.5735 L171.0937,60.6175 Z" id="Fill-11" fill="#FFFFFF"></path>
                <path d="M72.478,82.3714 L72.053,82.1474 C72.029,82.1354 72.003,82.1274 71.978,82.1274 C71.92,82.1274 71.87,82.1614 71.847,82.2164 C71.363,83.2324 70.521,83.7474 69.347,83.7474 C67.679,83.7474 66.514,82.5874 66.514,80.9254 C66.514,79.1764 67.636,78.0014 69.306,78.0014 C70.312,78.0014 71.165,78.4704 71.706,79.3214 C71.733,79.3634 71.775,79.3874 71.822,79.3874 C71.846,79.3874 71.87,79.3804 71.892,79.3674 L72.337,79.0634 C72.373,79.0424 72.397,79.0114 72.406,78.9764 C72.414,78.9414 72.407,78.9054 72.383,78.8684 C71.757,77.8274 70.603,77.2074 69.296,77.2074 C68.267,77.2074 67.34,77.5764 66.684,78.2474 C66.03,78.9184 65.669,79.8654 65.669,80.9154 C65.669,82.0084 66.038,82.9334 66.737,83.5924 C67.387,84.2044 68.292,84.5424 69.286,84.5424 C70.796,84.5424 71.92,83.8584 72.536,82.5654 C72.574,82.4894 72.551,82.4124 72.478,82.3714" id="Fill-15" fill="#EFCD95"></path>
                <path d="M80.7314,83.7474 C79.9694,83.7474 79.2594,83.4584 78.7344,82.9324 C78.2024,82.3974 77.9094,81.6674 77.9094,80.8744 C77.9094,79.1564 79.0434,78.0014 80.7314,78.0014 C82.3934,78.0014 83.5544,79.1834 83.5544,80.8744 C83.5544,81.6794 83.2744,82.4094 82.7664,82.9324 C82.2544,83.4584 81.5314,83.7474 80.7314,83.7474 M80.7314,77.2074 C79.7314,77.2074 78.8104,77.5644 78.1374,78.2154 C77.4454,78.8864 77.0644,79.8294 77.0644,80.8744 C77.0644,81.9194 77.4454,82.8634 78.1374,83.5334 C78.8104,84.1844 79.7314,84.5424 80.7314,84.5424 C81.7314,84.5424 82.6534,84.1844 83.3254,83.5334 C84.0184,82.8634 84.3994,81.9194 84.3994,80.8744 C84.3994,79.8294 84.0184,78.8864 83.3254,78.2154 C82.6534,77.5644 81.7314,77.2074 80.7314,77.2074" id="Fill-18" fill="#EFCD95"></path>
                <path d="M197.5166,60.5736 L196.7096,60.5736 L196.7056,60.6176 C196.2506,63.6796 194.4976,64.6856 191.5826,64.6856 L189.0376,64.6856 L188.7066,64.6856 L185.5286,64.6856 L185.5276,42.6236 C185.5276,40.3826 186.7896,39.8116 188.8036,39.8116 L189.0356,39.8116 L189.0356,38.9576 L188.9156,38.9576 L176.1626,38.9576 L176.1626,39.8076 L176.2746,39.8076 L176.3036,39.8076 C176.7486,39.8106 177.6566,39.7756 178.4756,40.1216 C179.3046,40.5136 180.0166,41.3296 180.0166,43.0226 L180.0306,61.8256 C180.0306,64.1396 178.7406,65.3656 176.3006,65.3656 L176.1626,65.3656 L176.1626,66.2506 L176.1696,66.2506 L188.7206,66.2406 L189.2596,66.2406 L196.8146,66.2406 L197.6556,60.5736 L197.5166,60.5736 Z" id="Fill-13" fill="#FFFFFF"></path>
                <path d="M95.7456,80.848 L93.6766,80.848 C93.5936,80.848 93.5376,80.919 93.5376,80.986 L93.5376,81.452 C93.5376,81.52 93.5826,81.591 93.6666,81.591 L95.0696,81.591 L95.0696,82.563 C94.6186,83.316 93.7526,83.747 92.6936,83.747 C91.8626,83.747 91.1166,83.472 90.5916,82.972 C90.0536,82.458 89.7686,81.751 89.7686,80.925 C89.7686,79.176 90.8916,78.001 92.5606,78.001 C93.5676,78.001 94.4196,78.47 94.9606,79.322 C95.0016,79.385 95.0826,79.406 95.1466,79.368 L95.5916,79.064 C95.6276,79.042 95.6526,79.011 95.6606,78.977 C95.6686,78.942 95.6616,78.906 95.6386,78.869 C95.0126,77.827 93.8586,77.207 92.5516,77.207 C91.5216,77.207 90.5946,77.577 89.9386,78.247 C89.2846,78.918 88.9246,79.866 88.9246,80.915 C88.9246,82.013 89.2946,82.939 89.9966,83.592 C90.6546,84.204 91.5836,84.542 92.6116,84.542 C93.9856,84.542 95.1886,83.887 95.8306,82.789 C95.8636,82.735 95.8636,82.702 95.8636,82.649 L95.8636,80.986 C95.8636,80.917 95.8276,80.848 95.7456,80.848" id="Fill-21" fill="#EFCD95"></path>
                <path d="M107.9189,77.3079 L107.3609,77.3079 C107.2879,77.3079 107.2429,77.3799 107.2429,77.4469 L107.2429,83.1449 L101.7039,77.3839 C101.6389,77.3189 101.6029,77.3079 101.5209,77.3079 L101.1349,77.3079 C101.0649,77.3079 101.0169,77.3659 101.0169,77.4469 L101.0169,84.3019 C101.0169,84.3799 101.0729,84.4409 101.1459,84.4409 L101.6719,84.4409 C101.7529,84.4409 101.8109,84.3819 101.8109,84.3019 L101.8109,78.6049 L107.3799,84.3649 C107.4449,84.4299 107.4819,84.4409 107.5649,84.4409 L107.9189,84.4409 C107.9889,84.4409 108.0369,84.3829 108.0369,84.3019 L108.0369,77.4469 C108.0369,77.3779 108.0009,77.3079 107.9189,77.3079" id="Fill-23" fill="#EFCD95"></path>
                <path d="M119.3613,81.7806 L115.1513,81.7806 L117.2513,78.2806 L119.3613,81.7806 Z M117.6403,77.3876 C117.6063,77.3306 117.5693,77.3076 117.5053,77.3076 L117.0383,77.3076 C116.9723,77.3076 116.9363,77.3306 116.9013,77.3876 L112.7453,84.2426 C112.7223,84.2756 112.7113,84.3086 112.7113,84.3426 C112.7113,84.4156 112.7613,84.4406 112.8093,84.4406 L113.4083,84.4406 C113.5573,84.4406 113.5833,84.3946 113.6433,84.2846 L114.7053,82.5246 L119.8073,82.5246 L120.8663,84.2796 L120.8693,84.2846 C120.9293,84.3956 120.9553,84.4406 121.1043,84.4406 L121.7433,84.4406 C121.7913,84.4406 121.8413,84.4156 121.8413,84.3426 C121.8413,84.3096 121.8303,84.2756 121.8083,84.2426 L117.6403,77.3876 Z" id="Fill-25" fill="#EFCD95"></path>
                <path d="M132.4014,82.3714 L131.9764,82.1474 C131.9534,82.1354 131.9264,82.1274 131.9014,82.1274 C131.8444,82.1274 131.7934,82.1624 131.7704,82.2164 C131.2864,83.2324 130.4454,83.7474 129.2704,83.7474 C127.6024,83.7474 126.4374,82.5874 126.4374,80.9254 C126.4374,79.1764 127.5594,78.0014 129.2294,78.0014 C130.2364,78.0014 131.0884,78.4704 131.6294,79.3214 C131.6564,79.3634 131.6994,79.3874 131.7454,79.3874 C131.7694,79.3874 131.7934,79.3804 131.8154,79.3674 L132.2604,79.0634 C132.2974,79.0424 132.3214,79.0114 132.3294,78.9764 C132.3384,78.9414 132.3304,78.9054 132.3064,78.8684 C131.6804,77.8274 130.5264,77.2074 129.2194,77.2074 C128.1904,77.2074 127.2634,77.5764 126.6074,78.2474 C125.9534,78.9184 125.5924,79.8654 125.5924,80.9154 C125.5924,82.0084 125.9624,82.9334 126.6604,83.5924 C127.3104,84.2044 128.2154,84.5424 129.2094,84.5424 C130.7194,84.5424 131.8434,83.8584 132.4604,82.5654 C132.4974,82.4894 132.4744,82.4124 132.4014,82.3714" id="Fill-27" fill="#EFCD95"></path>
                <path d="M116.4834,15.5033 C109.0094,17.8933 103.5844,18.2803 97.1464,18.3993 C103.6534,17.9283 108.9564,16.7613 115.9924,14.4423 C118.6964,13.5523 121.6184,12.1633 123.9614,10.9323 C125.7974,9.9673 127.5624,9.0423 128.7704,8.6773 C128.1244,9.0513 127.3094,9.5793 126.2644,10.2623 C123.5914,12.0093 119.9294,14.4023 116.4834,15.5033 M121.2134,18.2783 C120.7834,19.3743 119.8834,20.3163 118.5264,21.1013 C119.3244,20.4423 119.9394,19.4263 120.2394,18.5863 C120.8524,16.8633 120.2264,15.6013 119.8364,15.0253 C120.2054,14.8463 120.5734,14.6603 120.9374,14.4673 C121.2454,15.0903 121.8534,16.6473 121.2134,18.2783 M118.6774,18.8983 C119.1134,17.5103 118.5954,16.4523 118.1784,15.7663 C118.6054,15.5933 119.0334,15.4063 119.4584,15.2073 C119.8334,15.7743 120.3614,17.0373 119.5944,18.5273 C119.0884,19.5123 118.2584,20.5193 116.8844,21.2493 C117.6304,20.6333 118.4284,19.6903 118.6774,18.8983 M117.0574,19.1513 C117.3784,17.9213 116.8804,17.0563 116.4674,16.3773 C116.5574,16.3483 116.6454,16.3213 116.7364,16.2923 C117.0864,16.1813 117.4374,16.0533 117.7894,15.9183 C118.1374,16.4963 118.6624,17.6733 118.0144,18.9763 C117.5824,19.8433 116.6484,20.6153 115.4354,21.2713 C116.0404,20.7263 116.8794,19.8413 117.0574,19.1513 M114.0164,21.3023 C114.7154,20.7323 115.4764,19.6203 115.5054,18.9173 C115.5494,17.8663 115.2944,17.4313 114.9064,16.8513 C115.2884,16.7393 115.6784,16.6223 116.0744,16.4993 C116.4334,17.0733 116.9184,18.1493 116.3754,19.2103 C115.9964,19.9503 115.0644,20.7213 114.0164,21.3023 M112.9014,21.3763 C113.2334,20.9603 113.8674,20.2643 113.9834,19.5033 C114.1364,18.5113 113.7304,17.8103 113.2964,17.2953 C113.6854,17.1933 114.0824,17.0853 114.4834,16.9713 C114.8184,17.3783 115.2024,18.1433 114.9214,19.0343 C114.7144,19.6893 113.7584,20.8703 112.9014,21.3763 M111.9254,21.3173 C112.2764,20.9083 112.5804,19.9043 112.5494,19.4833 C112.4864,18.5933 112.1314,18.1053 111.6894,17.6913 C112.0694,17.6033 112.4564,17.5093 112.8474,17.4103 C113.2074,17.7853 113.7544,18.5523 113.4664,19.5623 C113.3214,20.0733 112.5444,20.8913 111.9254,21.3173 M109.8934,18.0703 C110.3224,17.9873 110.7554,17.8993 111.1984,17.8013 C111.6024,18.0843 112.0424,18.5153 112.0424,19.5233 C112.0424,20.0703 111.7234,20.7183 111.4084,21.0543 C111.4114,21.0093 111.4164,20.9633 111.4164,20.9183 C111.4084,19.4873 110.4524,18.5123 109.8934,18.0703 M93.5874,17.9573 C94.4024,17.9333 95.1624,17.8893 95.8624,17.8203 C102.9434,17.1083 106.6934,15.6433 114.1714,13.0913 C116.0044,12.4653 118.9894,11.2343 120.6764,10.4833 C123.5824,9.1913 126.5754,8.0333 128.2964,7.9643 C127.0524,8.3723 125.3014,9.4503 123.4164,10.4413 C121.0974,11.6593 118.5114,13.0343 115.8814,13.9453 C108.6474,16.4533 102.4224,17.5683 95.3694,17.9703 C94.7084,18.0063 94.1654,17.9893 93.5874,17.9573 M95.5314,17.0643 C102.5454,16.0543 111.8534,11.9863 117.7314,9.7793 C121.8974,8.2143 125.2374,6.8163 127.6714,7.1903 C125.8414,7.4503 122.8974,8.7273 120.1604,9.9443 C118.4834,10.6913 116.5284,11.6343 114.7374,12.3043 C107.9464,14.8463 102.0704,16.5913 95.0794,17.2933 C94.3084,17.3693 93.6594,17.3353 92.9214,17.2783 C93.8574,17.2493 94.7224,17.1783 95.5314,17.0643 M95.1994,16.3053 C97.7474,15.8293 101.0354,14.8613 103.5404,13.9693 C103.5124,14.1923 103.4504,14.3903 103.3794,14.5533 C100.5284,15.3973 97.6434,16.0583 94.7484,16.4743 C94.0624,16.5713 93.4704,16.5893 92.8384,16.5703 C93.6714,16.5273 94.4624,16.4423 95.1994,16.3053 M95.8354,8.6103 C97.0884,8.7933 98.2574,9.0013 99.3824,9.2523 C102.0534,9.8453 104.8684,10.3993 105.5244,11.9503 C105.8684,12.7633 105.7364,13.5493 105.6704,13.8313 C105.2054,13.9843 104.7384,14.1343 104.2704,14.2783 C104.4064,13.8733 104.4494,13.3993 104.2044,12.7393 C103.5584,11.0033 99.9044,9.2583 95.8354,8.6103 M106.0224,11.6283 C105.3804,9.8493 102.5874,9.1023 99.6004,8.4393 C98.4184,8.1763 97.1954,7.9593 95.8794,7.7703 C97.3614,7.8573 98.8154,7.9743 100.2954,8.1523 C103.4014,8.5263 107.0204,9.2443 107.5934,11.1703 C107.8754,12.1173 107.8034,12.7773 107.7204,13.1203 C107.2114,13.3053 106.7004,13.4833 106.1874,13.6573 C106.2774,13.1483 106.4014,12.6843 106.0224,11.6283 M101.1954,7.0483 C104.7514,7.2383 107.9444,7.6963 109.1844,9.4683 C110.0404,10.6903 109.8534,12.0303 109.7944,12.3493 C109.2264,12.5713 108.7884,12.7393 108.5704,12.8153 C108.4554,12.8573 108.3384,12.8973 108.2234,12.9403 C108.2784,12.7363 108.2954,12.2753 108.2164,11.7173 C107.9544,9.8433 106.9254,8.1083 100.4344,7.3263 C98.8954,7.1403 97.3864,7.0213 95.8484,6.9333 C97.5844,6.9243 99.3374,6.9493 101.1954,7.0483 M102.0874,5.9423 C106.1034,5.9643 109.8364,6.6163 111.0824,8.3373 C112.0084,9.6153 111.8794,11.0633 111.8004,11.5473 C111.2714,11.7613 110.7614,11.9653 110.3064,12.1463 C110.3914,11.6193 110.4464,10.3983 109.5844,9.0243 C108.4364,7.1923 105.1664,6.4253 101.2814,6.2183 C99.4354,6.1183 97.6934,6.0933 95.9744,6.1003 C97.9154,6.0013 99.9334,5.9333 102.0874,5.9423 M102.9764,4.8373 C107.4584,4.6933 111.4024,5.2923 112.9004,7.1573 C114.0534,8.5943 113.8194,10.3053 113.7274,10.7683 C113.2524,10.9613 112.7624,11.1593 112.2824,11.3543 C112.3954,10.7023 112.4804,9.2763 111.4574,7.8533 C110.0454,5.8883 106.4834,5.1333 102.1354,5.1103 C100.0104,5.1003 98.0214,5.1653 96.1074,5.2613 C98.2564,5.0733 100.5114,4.9153 102.9764,4.8373 M103.8624,3.7313 C108.8854,3.4233 112.8424,4.0003 114.6184,6.0373 C115.9324,7.5463 115.6714,9.4553 115.5544,10.0243 C115.1434,10.1913 114.6854,10.3783 114.2024,10.5743 C114.3374,9.8273 114.4624,8.1593 113.2524,6.6433 C111.5774,4.5413 107.8094,3.8533 102.9934,4.0053 C100.6154,4.0803 98.4334,4.2313 96.3544,4.4093 C98.6834,4.1393 101.1414,3.8973 103.8624,3.7313 M104.7464,2.6233 C110.2504,2.1553 114.4744,2.7163 116.5054,4.8973 C118.0084,6.5113 117.6364,8.6213 117.4884,9.2313 C117.4124,9.2623 117.3374,9.2923 117.2614,9.3233 C117.1164,9.3843 116.6834,9.5623 116.0854,9.8073 C116.2084,9.1093 116.1904,7.6023 115.7114,6.6433 C114.6994,4.6203 111.9404,2.4053 103.8554,2.8993 C101.2324,3.0603 98.8564,3.2903 96.6044,3.5483 C99.1124,3.1983 101.7764,2.8753 104.7464,2.6233 M105.6284,1.5173 C111.6154,0.8903 116.0124,1.4603 118.2534,3.8313 C119.8574,5.5303 119.6324,7.6143 119.4694,8.4113 C118.9984,8.6043 118.5184,8.8033 118.0294,9.0063 C118.2024,8.1423 118.4174,6.0633 116.8234,4.3403 C114.6264,1.9643 110.4914,1.3043 104.7194,1.7943 C101.9174,2.0323 99.3874,2.3333 97.0054,2.6583 C99.6514,2.2403 102.4714,1.8473 105.6284,1.5173 M127.0244,6.3083 C125.1364,6.2743 122.8724,7.0433 120.3194,8.0663 C120.3904,7.7793 120.4584,7.3743 120.4684,6.8993 C123.0534,6.0713 125.2734,5.7403 127.0244,6.3083 M131.4184,8.4543 C131.4184,8.4543 130.5064,7.7513 129.9704,7.1743 C127.4214,4.7023 124.2904,4.7613 120.4154,5.9923 C120.2944,5.1513 119.9564,4.1993 119.1934,3.2883 C116.9334,0.5933 111.8374,0.0343 105.5864,0.6893 C99.8534,1.2893 95.2284,2.0963 90.7544,2.8753 C83.4704,4.1473 77.1984,5.2343 68.8624,4.8793 C73.7444,5.9843 79.1784,6.9083 83.5114,7.5603 C98.3044,8.7733 102.7974,11.3993 103.4234,13.0533 C103.4334,13.0763 103.4394,13.1003 103.4474,13.1243 C100.9584,14.0263 97.6494,15.3613 95.0474,15.4913 C83.9554,16.0463 66.8744,9.9493 66.8744,9.9493 C66.8744,9.9493 73.6804,12.9213 76.7744,13.8293 C79.8674,14.7373 89.6354,17.6043 89.6354,17.6043 C87.8224,17.8103 77.1674,18.5853 71.8984,19.3433 C80.4224,19.0283 83.0624,19.1373 91.3874,19.0893 L92.7854,19.0823 C99.0354,19.0523 103.5374,19.1583 108.7404,18.2803 L108.7364,18.2823 C109.4084,18.5683 110.5454,19.5113 110.5504,20.6803 C110.5534,21.2743 108.9894,22.3493 107.8354,22.8253 C106.0044,23.5803 97.8144,26.0673 97.4674,26.1463 C97.4674,26.1463 110.6294,24.5013 114.7564,23.4343 C118.6934,22.4163 121.1264,20.7813 121.9884,18.5703 C122.7544,16.6073 122.0384,14.8013 121.6674,14.0713 C123.5184,13.0443 125.2624,11.9053 126.7174,10.9553 C128.2804,9.9343 131.0014,8.3993 131.4184,8.4543" id="Fill-30" fill="#EFCD95"></path>
            </g>
            <polygon id="Fill-32" fill="#EFCD95" points="37.285 77.573 38.568 77.573 38.568 2.194 37.285 2.194"></polygon>
            <polygon id="Fill-34" fill="#EFCD95" points="40.823 77.573 42.106 77.573 42.106 2.194 40.823 2.194"></polygon>
            <polygon id="Fill-35" fill="#EFCD95" points="44.362 77.573 45.645 77.573 45.645 2.194 44.362 2.194"></polygon>
            <polygon id="Fill-36" fill="#EFCD95" points="47.901 77.573 49.184 77.573 49.184 2.194 47.901 2.194"></polygon>
            <polygon id="Fill-37" fill="#EFCD95" points="51.439 77.573 52.722 77.573 52.722 2.194 51.439 2.194"></polygon>
            <polygon id="Fill-38" fill="#EFCD95" points="91.9946 34.3519 56.2616 34.3519 56.2616 2.1939 54.9786 2.1939 54.9786 77.5729 56.2616 77.5729 56.2616 39.7689 91.9946 39.7689 91.9946 77.5729 93.2776 77.5729 93.2776 2.1939 91.9946 2.1939"></polygon>
            <polygon id="Fill-39" fill="#EFCD95" points="95.533 77.573 96.816 77.573 96.816 2.194 95.533 2.194"></polygon>
            <polygon id="Fill-40" fill="#EFCD95" points="99.072 77.573 100.355 77.573 100.355 2.194 99.072 2.194"></polygon>
            <polygon id="Fill-41" fill="#EFCD95" points="102.61 77.573 103.893 77.573 103.893 2.194 102.61 2.194"></polygon>
            <polygon id="Fill-42" fill="#EFCD95" points="106.149 77.573 107.432 77.573 107.432 2.194 106.149 2.194"></polygon>
            <polygon id="Fill-43" fill="#EFCD95" points="109.688 77.573 110.971 77.573 110.971 2.194 109.688 2.194"></polygon>
            <path d="M217.5176,66.8597 C214.9516,69.2017 212.1216,71.1997 209.0996,72.8397 C211.6886,71.1737 214.0806,69.2007 216.2386,66.9467 C223.4066,59.4577 227.1736,49.7017 227.1736,39.6977 C227.1736,29.6937 223.4066,19.9387 216.2386,12.4497 C214.0796,10.1937 211.6866,8.2207 209.0976,6.5547 C212.1206,8.1947 214.9506,10.1927 217.5176,12.5367 C225.5136,19.8357 229.9176,29.4817 229.9176,39.6977 C229.9176,49.9147 225.5136,59.5607 217.5176,66.8597 M214.0876,66.1077 C220.1666,58.6787 223.1466,49.1327 223.1466,39.6977 C223.1466,30.2627 220.1666,20.7167 214.0876,13.2877 C212.1746,10.9507 210.0156,8.8807 207.6206,7.1337 C210.4066,8.8367 212.9896,10.9137 215.3186,13.3567 C222.0616,20.4277 225.8906,29.5867 225.8906,39.6977 C225.8906,49.7857 222.0646,58.9267 215.3346,65.9967 C213.0286,68.4197 210.4756,70.4867 207.7216,72.1847 C210.0756,70.4537 212.2026,68.4117 214.0876,66.1077 M211.9366,65.2697 C216.9356,57.9087 219.1196,48.5657 219.1196,39.6977 C219.1196,30.8307 216.9356,21.4867 211.9366,14.1267 C210.2856,11.6957 208.3686,9.5257 206.1726,7.6917 C208.7156,9.4557 211.0406,11.6197 213.1196,14.1767 C218.6416,20.9697 221.8636,29.6917 221.8636,39.6977 C221.8636,49.6567 218.6466,58.3467 213.1516,65.1337 C211.1206,67.6427 208.8556,69.7797 206.3816,71.5317 C208.4916,69.7357 210.3376,67.6237 211.9366,65.2697 M209.7856,64.4307 C213.7156,57.1467 215.0926,47.9967 215.0926,39.6977 C215.0926,31.3987 213.7156,22.2497 209.7856,14.9647 C208.4266,12.4467 206.7796,10.1797 204.8076,8.2607 C207.0836,10.0817 209.1246,12.3257 210.9206,14.9977 C215.2666,21.4627 217.8366,29.7967 217.8366,39.6977 C217.8366,49.5277 215.2776,57.8167 210.9686,64.2707 C209.2196,66.8917 207.2396,69.1097 205.0356,70.9207 C206.9086,69.0487 208.4776,66.8537 209.7856,64.4307 M211.0656,39.6977 C211.0656,29.2107 210.0466,16.4637 203.5856,8.9047 C205.5496,10.7647 207.2616,13.0637 208.7216,15.8177 C211.9546,21.9167 213.8096,29.9017 213.8096,39.6977 C213.8096,49.3987 211.9706,57.3267 208.7856,63.4077 C207.3326,66.1817 205.6296,68.5017 203.6746,70.3797 C210.0536,62.8087 211.0656,50.1357 211.0656,39.6977 M188.1516,75.7637 C173.3936,75.7637 166.5206,64.3037 166.5206,39.6977 C166.5206,15.0917 173.3936,3.6317 188.1516,3.6317 C202.9096,3.6317 209.7826,15.0917 209.7826,39.6977 C209.7826,64.3037 202.9096,75.7637 188.1516,75.7637 M167.5816,63.5787 C164.3496,57.4797 162.4936,49.4947 162.4936,39.6977 C162.4936,29.9967 164.3316,22.0687 167.5176,15.9877 C168.9706,13.2137 170.6746,10.8927 172.6306,9.0137 C166.2496,16.5857 165.2376,29.2597 165.2376,39.6977 C165.2376,50.1847 166.2566,62.9297 172.7156,70.4887 C170.7526,68.6297 169.0406,66.3317 167.5816,63.5787 M165.3826,64.3987 C161.0366,57.9327 158.4666,49.5997 158.4666,39.6977 C158.4666,29.8677 161.0256,21.5797 165.3346,15.1247 C167.0846,12.5037 169.0646,10.2847 171.2706,8.4737 C169.3966,10.3457 167.8266,12.5417 166.5176,14.9647 C162.5866,22.2497 161.2106,31.3987 161.2106,39.6977 C161.2106,47.9967 162.5866,57.1467 166.5176,64.4307 C167.8756,66.9477 169.5216,69.2137 171.4926,71.1317 C169.2176,69.3127 167.1776,67.0687 165.3826,64.3987 M163.1836,65.2187 C157.6616,58.4257 154.4396,49.7047 154.4396,39.6977 C154.4396,29.7387 157.6566,21.0497 163.1516,14.2617 C165.1836,11.7527 167.4486,9.6147 169.9236,7.8617 C167.8126,9.6587 165.9666,11.7717 164.3666,14.1267 C159.3676,21.4867 157.1836,30.8307 157.1836,39.6977 C157.1836,48.5657 159.3676,57.9087 164.3666,65.2697 C166.0166,67.6987 167.9326,69.8687 170.1256,71.7017 C167.5846,69.9377 165.2606,67.7747 163.1836,65.2187 M160.9846,66.0397 C154.2416,58.9677 150.4126,49.8097 150.4126,39.6977 C150.4126,29.6097 154.2386,20.4687 160.9686,13.3997 C163.2746,10.9757 165.8296,8.9077 168.5836,7.2097 C166.2286,8.9417 164.1016,10.9837 162.2156,13.2877 C156.1366,20.7167 153.1566,30.2627 153.1566,39.6977 C153.1566,49.1327 156.1366,58.6787 162.2156,66.1077 C164.1276,68.4447 166.2866,70.5137 168.6806,72.2607 C165.8946,70.5587 163.3126,68.4817 160.9846,66.0397 M158.7856,66.8597 C150.7896,59.5607 146.3856,49.9147 146.3856,39.6977 C146.3856,29.4817 150.7896,19.8357 158.7856,12.5367 C161.3526,10.1927 164.1826,8.1947 167.2056,6.5547 C164.6156,8.2217 162.2226,10.1947 160.0646,12.4497 C152.8966,19.9387 149.1296,29.6937 149.1296,39.6977 C149.1296,49.7017 152.8966,59.4577 160.0646,66.9467 C162.2226,69.2007 164.6146,71.1737 167.2036,72.8397 C164.1816,71.1997 161.3516,69.2017 158.7856,66.8597 M218.3896,11.6107 C210.2426,4.1747 199.5526,0.0617 188.2676,0.0057 L188.2676,0.0007 C188.2286,0.0007 188.1906,0.0027 188.1516,0.0027 C188.1126,0.0027 188.0746,0.0007 188.0366,0.0007 L188.0366,0.0057 C176.7496,0.0617 166.0606,4.1747 157.9136,11.6107 C149.6526,19.1517 145.1026,29.1267 145.1026,39.6977 C145.1026,50.2697 149.6526,60.2447 157.9136,67.7847 C166.0606,75.2217 176.7496,79.3347 188.0366,79.3907 L188.0366,79.3957 C188.0746,79.3957 188.1126,79.3937 188.1516,79.3927 C188.1906,79.3937 188.2286,79.3957 188.2676,79.3957 L188.2676,79.3907 C199.5526,79.3347 210.2426,75.2217 218.3896,67.7847 C226.6506,60.2447 231.2006,50.2697 231.2006,39.6977 C231.2006,29.1267 226.6506,19.1517 218.3896,11.6107" id="Fill-44" fill="#EFCD95"></path>
            <path d="M243.168,69.6512 C241.151,69.6512 239.51,71.2932 239.51,73.3102 C239.51,75.3272 241.151,76.9672 243.168,76.9672 C245.185,76.9672 246.827,75.3272 246.827,73.3102 C246.827,71.2932 245.185,69.6512 243.168,69.6512 M243.168,78.0362 C240.562,78.0362 238.442,75.9162 238.442,73.3102 C238.442,70.7032 240.562,68.5822 243.168,68.5822 C245.774,68.5822 247.896,70.7032 247.896,73.3102 C247.896,75.9162 245.774,78.0362 243.168,78.0362" id="Fill-45" fill="#EFCD95"></path>
            <path d="M243.1709,72.2523 C242.5879,72.2523 242.1129,72.7273 242.1129,73.3103 C242.1129,73.8933 242.5879,74.3673 243.1709,74.3673 C243.7539,74.3673 244.2289,73.8933 244.2289,73.3103 C244.2289,72.7273 243.7539,72.2523 243.1709,72.2523 M243.1709,75.4363 C241.9989,75.4363 241.0449,74.4823 241.0449,73.3103 C241.0449,72.1373 241.9989,71.1833 243.1709,71.1833 C244.3429,71.1833 245.2969,72.1373 245.2969,73.3103 C245.2969,74.4823 244.3429,75.4363 243.1709,75.4363" id="Fill-46" fill="#EFCD95"></path>
            <path d="M131.7896,69.6512 C129.7726,69.6512 128.1306,71.2932 128.1306,73.3102 C128.1306,75.3272 129.7726,76.9672 131.7896,76.9672 C133.8066,76.9672 135.4476,75.3272 135.4476,73.3102 C135.4476,71.2932 133.8066,69.6512 131.7896,69.6512 M131.7896,78.0362 C129.1836,78.0362 127.0616,75.9162 127.0616,73.3102 C127.0616,70.7032 129.1836,68.5822 131.7896,68.5822 C134.3956,68.5822 136.5156,70.7032 136.5156,73.3102 C136.5156,75.9162 134.3956,78.0362 131.7896,78.0362" id="Fill-47" fill="#EFCD95"></path>
            <path d="M131.7915,72.2523 C131.2085,72.2523 130.7335,72.7273 130.7335,73.3103 C130.7335,73.8933 131.2085,74.3673 131.7915,74.3673 C132.3745,74.3673 132.8495,73.8933 132.8495,73.3103 C132.8495,72.7273 132.3745,72.2523 131.7915,72.2523 M131.7915,75.4363 C130.6195,75.4363 129.6655,74.4823 129.6655,73.3103 C129.6655,72.1373 130.6195,71.1833 131.7915,71.1833 C132.9635,71.1833 133.9175,72.1373 133.9175,73.3103 C133.9175,74.4823 132.9635,75.4363 131.7915,75.4363" id="Fill-48" fill="#EFCD95"></path>
            <path d="M371.0918,69.6512 C369.0738,69.6512 367.4338,71.2932 367.4338,73.3102 C367.4338,75.3272 369.0738,76.9672 371.0918,76.9672 C373.1088,76.9672 374.7498,75.3272 374.7498,73.3102 C374.7498,71.2932 373.1088,69.6512 371.0918,69.6512 M371.0918,78.0362 C368.4858,78.0362 366.3648,75.9162 366.3648,73.3102 C366.3648,70.7032 368.4858,68.5822 371.0918,68.5822 C373.6978,68.5822 375.8188,70.7032 375.8188,73.3102 C375.8188,75.9162 373.6978,78.0362 371.0918,78.0362" id="Fill-49" fill="#EFCD95"></path>
            <path d="M371.0937,72.2523 C370.5107,72.2523 370.0357,72.7273 370.0357,73.3103 C370.0357,73.8933 370.5107,74.3673 371.0937,74.3673 C371.6767,74.3673 372.1517,73.8933 372.1517,73.3103 C372.1517,72.7273 371.6767,72.2523 371.0937,72.2523 M371.0937,75.4363 C369.9217,75.4363 368.9677,74.4823 368.9677,73.3103 C368.9677,72.1373 369.9217,71.1833 371.0937,71.1833 C372.2667,71.1833 373.2207,72.1373 373.2207,73.3103 C373.2207,74.4823 372.2667,75.4363 371.0937,75.4363" id="Fill-50" fill="#EFCD95"></path>
            <path d="M464.6016,69.6512 C462.5836,69.6512 460.9426,71.2932 460.9426,73.3102 C460.9426,75.3272 462.5836,76.9672 464.6016,76.9672 C466.6186,76.9672 468.2586,75.3272 468.2586,73.3102 C468.2586,71.2932 466.6186,69.6512 464.6016,69.6512 M464.6016,78.0362 C461.9956,78.0362 459.8736,75.9162 459.8736,73.3102 C459.8736,70.7032 461.9956,68.5822 464.6016,68.5822 C467.2076,68.5822 469.3276,70.7032 469.3276,73.3102 C469.3276,75.9162 467.2076,78.0362 464.6016,78.0362" id="Fill-51" fill="#EFCD95"></path>
            <path d="M464.6035,72.2523 C464.0205,72.2523 463.5455,72.7273 463.5455,73.3103 C463.5455,73.8933 464.0205,74.3673 464.6035,74.3673 C465.1865,74.3673 465.6615,73.8933 465.6615,73.3103 C465.6615,72.7273 465.1865,72.2523 464.6035,72.2523 M464.6035,75.4363 C463.4305,75.4363 462.4765,74.4823 462.4765,73.3103 C462.4765,72.1373 463.4305,71.1833 464.6035,71.1833 C465.7755,71.1833 466.7295,72.1373 466.7295,73.3103 C466.7295,74.4823 465.7755,75.4363 464.6035,75.4363" id="Fill-52" fill="#EFCD95"></path>
            <path d="M307.2842,61.8099 L271.1762,8.3269 L271.1762,4.4839 L308.5142,59.7269 L307.2842,61.8099 Z M305.2152,65.3119 L271.1762,14.8899 L271.1762,10.6189 L306.5622,63.0319 L305.2152,65.3119 Z M303.2462,68.6459 L271.1762,21.1489 L271.1762,17.1819 L304.4932,66.5349 L303.2462,68.6459 Z M301.2732,71.9849 L271.1762,27.4089 L271.1762,23.4409 L302.5232,69.8689 L301.2732,71.9849 Z M299.2552,75.3999 L271.1762,33.7929 L271.1762,29.7009 L300.5512,73.2069 L299.2552,75.3999 Z M347.8892,2.1939 L345.7292,2.1939 L344.4462,2.1939 L342.5042,2.1939 L309.2362,58.5049 L271.1762,2.1939 L271.1752,2.1939 L270.9652,2.1939 L265.4512,2.1939 L265.4512,77.5729 L271.1762,77.5729 L271.1762,36.0859 L299.1742,77.5729 L299.4152,77.5729 L299.5852,77.4579 L299.6482,77.5729 L304.4472,77.5729 L330.1962,34.1539 L330.1962,77.5729 L331.4792,77.5729 L331.4792,31.9899 L333.7672,28.1319 L333.7672,77.5729 L335.0512,77.5729 L335.0512,25.9689 L337.2702,22.2249 L337.2702,77.5729 L338.5542,77.5729 L338.5542,20.0619 L340.7742,16.3179 L340.7742,77.5729 L342.0562,77.5729 L342.0562,14.1539 L344.4462,10.1249 L344.4462,77.5729 L345.7292,77.5729 L345.7292,7.9619 L347.8892,4.3189 L347.8892,77.5729 L349.1732,77.5729 L349.1732,2.1939 L347.8892,2.1939 Z" id="Fill-53" fill="#EFCD95"></path>
            <polygon id="Fill-54" fill="#EFCD95" points="391.443 77.573 392.726 77.573 392.726 2.194 391.443 2.194"></polygon>
            <polygon id="Fill-55" fill="#EFCD95" points="394.981 77.573 396.264 77.573 396.264 2.194 394.981 2.194"></polygon>
            <polygon id="Fill-56" fill="#EFCD95" points="398.521 77.573 399.804 77.573 399.804 2.194 398.521 2.194"></polygon>
            <polygon id="Fill-57" fill="#EFCD95" points="402.059 77.573 403.342 77.573 403.342 2.194 402.059 2.194"></polygon>
            <polygon id="Fill-58" fill="#EFCD95" points="405.598 77.573 406.881 77.573 406.881 2.194 405.598 2.194"></polygon>
            <polygon id="Fill-59" fill="#EFCD95" points="410.4189 40.0028 443.9329 40.0028 443.9329 34.5858 410.4189 34.5858 410.4189 7.6108 446.0699 7.6108 446.0699 2.1938 410.4189 2.1938 409.7769 2.1938 409.1359 2.1938 409.1359 77.5728 409.7769 77.5728 410.4189 77.5728 447.2779 77.5728 447.2779 72.1548 410.4189 72.1548"></polygon>
            <polygon id="Fill-60" fill="#EFCD95" points="284.667 121.39 497.29 121.39 497.29 120.589 284.667 120.589"></polygon>
            <polygon id="Fill-61" fill="#EFCD95" points="0 121.39 212.623 121.39 212.623 120.589 0 120.589"></polygon>
            <path d="M237.498,119.9857 L237.498,124.6757 L242.588,124.6757 C244.317,124.6757 245.181,123.7477 245.181,122.3397 C245.181,120.9777 244.205,119.9857 242.46,119.9857 L237.498,119.9857 Z M237.498,115.7127 L237.498,118.8657 L242.092,118.8657 C243.116,118.8657 243.725,118.2417 243.725,117.2647 C243.725,116.2087 243.084,115.7127 241.932,115.7127 L237.498,115.7127 Z M236.298,125.6207 L236.298,114.7677 C236.298,114.6557 236.394,114.5917 236.49,114.5917 L241.884,114.5917 C243.869,114.5917 245.005,115.5197 245.005,117.1207 C245.005,118.0017 244.589,118.8007 243.772,119.2167 C245.325,119.5377 246.462,120.5617 246.462,122.3227 C246.462,124.5477 244.909,125.7967 242.556,125.7967 L236.49,125.7967 C236.394,125.7967 236.298,125.7317 236.298,125.6207 Z" id="Fill-62" fill="#EFCD95"></path>
            <path d="M256.0107,125.7962 C255.9147,125.7962 255.8197,125.7322 255.8197,125.6202 L255.8197,120.3542 L251.3847,114.8962 C251.3367,114.8482 251.3047,114.7832 251.3047,114.7352 C251.3047,114.6402 251.3687,114.5922 251.4337,114.5922 L252.4577,114.5922 C252.6817,114.5922 252.7137,114.6552 252.8417,114.8162 L256.5067,119.3942 L260.1567,114.8162 C260.2847,114.6552 260.3167,114.5922 260.5407,114.5922 L261.4857,114.5922 C261.5487,114.5922 261.6137,114.6402 261.6137,114.7352 C261.6137,114.7832 261.5807,114.8312 261.5327,114.8962 L257.0197,120.4342 L257.0197,125.6202 C257.0197,125.7322 256.9237,125.7962 256.8267,125.7962 L256.0107,125.7962 Z" id="Fill-63" fill="#EFCD95"></path>
        </g>
    </g>
</svg>